<svg width="22" height="22" viewBox="0 0 22 22" fill="none" xmlns="http://www.w3.org/2000/svg">
<path d="M20.0296 9.71097C20.3801 8.85302 20.4973 7.91758 20.3691 6.9997C20.241 6.08182 19.8722 5.21422 19.3001 4.48505C18.7281 3.75588 17.9732 3.19114 17.1122 2.8482C16.2512 2.50526 15.3148 2.39635 14.3981 2.53253C13.83 1.80074 13.0783 1.2323 12.2195 0.884946C11.3606 0.537591 10.4252 0.423685 9.50806 0.554796C8.59096 0.685906 7.72487 1.05736 6.99776 1.63145C6.27064 2.20554 5.70838 2.96181 5.36808 3.82347C4.44983 3.94916 3.58122 4.3157 2.85052 4.88583C2.11981 5.45596 1.55306 6.20937 1.20785 7.06949C0.86264 7.92961 0.751277 8.86579 0.885078 9.78289C1.01888 10.7 1.39307 11.5653 1.96964 12.291C1.68828 12.9805 1.55683 13.7219 1.58401 14.4661C1.6112 15.2103 1.79639 15.9402 2.1273 16.6074C2.4582 17.2745 2.92725 17.8636 3.5033 18.3355C4.07934 18.8075 4.7492 19.1515 5.46839 19.3447C5.91417 19.4667 6.37403 19.5298 6.8362 19.5322C7.09257 19.532 7.34858 19.5129 7.60214 19.475C8.17036 20.2066 8.92202 20.7747 9.78081 21.1219C10.6396 21.469 11.5749 21.5828 12.4919 21.4516C13.4089 21.3204 14.2748 20.9489 15.0018 20.3749C15.7287 19.8008 16.2909 19.0447 16.6312 18.1832C17.5495 18.0575 18.4181 17.6909 19.1488 17.1208C19.8795 16.5507 20.4462 15.7973 20.7914 14.9371C21.1366 14.077 21.248 13.1408 21.1142 12.2237C20.9804 11.3066 20.6062 10.4413 20.0296 9.71566V9.71097ZM16.1418 4.10378C17.0869 4.35642 17.8958 4.96837 18.3961 5.80907C18.8963 6.64977 19.0482 7.65266 18.8193 8.60378C18.7303 8.54472 18.6403 8.48753 18.5465 8.43409L14.3746 6.02097C14.2606 5.95514 14.1313 5.92049 13.9996 5.92049C13.868 5.92049 13.7387 5.95514 13.6246 6.02097L9.49964 8.40316V6.67066L13.2965 4.47878C13.7225 4.23137 14.1933 4.07084 14.6816 4.00647C15.17 3.9421 15.6663 3.97518 16.1418 4.10378ZM12.4996 11.8672L10.9996 12.7335L9.49964 11.8672V10.1347L10.9996 9.26847L12.4996 10.1347V11.8672ZM6.49964 5.75097C6.49999 5.01785 6.71522 4.3009 7.11872 3.68881C7.52222 3.07672 8.09628 2.59632 8.76992 2.30703C9.44355 2.01775 10.1872 1.93226 10.9089 2.06115C11.6306 2.19004 12.2987 2.52765 12.8306 3.03222C12.7368 3.08003 12.6431 3.12597 12.5493 3.18409L8.37464 5.58878C8.26074 5.65454 8.16613 5.7491 8.10031 5.86297C8.03449 5.97684 7.99978 6.10601 7.99964 6.23753V11.001L6.49964 10.1347V5.75097ZM2.83027 7.15066C3.30812 6.31729 4.08933 5.70065 5.01089 5.42941C5.00433 5.53628 4.99964 5.64316 4.99964 5.75097V10.5678C4.99961 10.6995 5.03425 10.8289 5.10008 10.9429C5.16591 11.057 5.2606 11.1517 5.37464 11.2175L9.49964 13.5988L7.99964 14.4697L4.20277 12.2732C3.34149 11.7759 2.71304 10.9568 2.45564 9.99615C2.19825 9.0355 2.33301 8.01195 2.83027 7.15066ZM5.85745 17.8982C4.91238 17.6455 4.10344 17.0336 3.60322 16.1929C3.10301 15.3522 2.95111 14.3493 3.17995 13.3982C3.26902 13.4572 3.35902 13.5144 3.45277 13.5678L7.62464 15.981C7.73866 16.0468 7.86799 16.0815 7.99964 16.0815C8.13129 16.0815 8.26063 16.0468 8.37464 15.981L12.4996 13.5988V15.3313L8.70277 17.5232C8.2768 17.7706 7.80603 17.9311 7.31765 17.9955C6.82927 18.0598 6.33297 18.0268 5.85745 17.8982ZM15.4996 16.251C15.5 16.9843 15.2854 17.7017 14.8823 18.3143C14.4792 18.9269 13.9053 19.4079 13.2317 19.6977C12.5581 19.9875 11.8142 20.0735 11.0923 19.9449C10.3703 19.8164 9.70183 19.4789 9.16964 18.9744C9.26339 18.9266 9.35714 18.876 9.45089 18.8216L13.6246 16.4132C13.7385 16.3474 13.8331 16.2528 13.899 16.139C13.9648 16.0251 13.9995 15.8959 13.9996 15.7644V11.001L15.4996 11.8672V16.251ZM19.169 14.8513C18.6912 15.6847 17.91 16.3013 16.9884 16.5725C16.995 16.4657 16.9996 16.3588 16.9996 16.251V11.4341C16.9997 11.3024 16.965 11.173 16.8992 11.059C16.8334 10.945 16.7387 10.8502 16.6246 10.7844L12.4996 8.40316L13.9996 7.53691L17.7965 9.72878C18.6578 10.2261 19.2862 11.0451 19.5436 12.0058C19.801 12.9664 19.6663 13.99 19.169 14.8513Z" fill="#9747FF"/>
</svg>
