<svg width="25" height="25" viewBox="0 0 25 25" fill="none" xmlns="http://www.w3.org/2000/svg">
<path d="M21.5873 12.9285L14.8373 19.6785C14.6965 19.8192 14.5057 19.8983 14.3066 19.8983C14.1076 19.8983 13.9167 19.8192 13.776 19.6785C13.6353 19.5378 13.5562 19.3469 13.5562 19.1479C13.5562 18.9489 13.6353 18.758 13.776 18.6173L19.2463 13.1479H4.55664C4.35773 13.1479 4.16696 13.0689 4.02631 12.9282C3.88566 12.7876 3.80664 12.5968 3.80664 12.3979C3.80664 12.199 3.88566 12.0082 4.02631 11.8675C4.16696 11.7269 4.35773 11.6479 4.55664 11.6479H19.2463L13.776 6.1785C13.6353 6.03777 13.5562 5.8469 13.5562 5.64788C13.5562 5.44885 13.6353 5.25798 13.776 5.11725C13.9167 4.97652 14.1076 4.89746 14.3066 4.89746C14.5057 4.89746 14.6965 4.97652 14.8373 5.11725L21.5873 11.8673C21.657 11.9369 21.7123 12.0196 21.7501 12.1107C21.7878 12.2017 21.8072 12.2993 21.8072 12.3979C21.8072 12.4964 21.7878 12.594 21.7501 12.6851C21.7123 12.7761 21.657 12.8588 21.5873 12.9285Z" fill="#9747FF"/>
</svg>
