<svg width="19" height="19" viewBox="0 0 19 19" fill="none" xmlns="http://www.w3.org/2000/svg">
<path d="M15.6381 9.77135C17.949 6.52666 19.1274 3.17322 17.4887 1.53447C15.8499 -0.104279 12.4965 1.07416 9.25181 3.3851C6.00713 1.07416 2.65369 -0.104279 1.01494 1.53447C-0.623811 3.17322 0.554627 6.52666 2.86556 9.77135C0.554627 13.016 -0.623811 16.3695 1.01494 18.0082C1.54275 18.536 2.24775 18.7713 3.069 18.7713C4.8015 18.7713 7.0515 17.7242 9.2565 16.1576C11.4521 17.7242 13.7021 18.7713 15.4393 18.7713C16.2606 18.7713 16.9665 18.5351 17.4934 18.0082C19.1274 16.3695 17.949 13.016 15.6381 9.77135ZM16.4284 2.59478C17.1446 3.31103 16.6609 5.63228 14.6921 8.52728C14.0693 7.75627 13.4062 7.01868 12.7056 6.3176C12.0044 5.61794 11.2668 4.95577 10.4959 4.33385C13.3909 2.3651 15.7121 1.8776 16.4284 2.59478ZM13.779 9.77135C13.1156 10.6106 12.4031 11.4098 11.6453 12.1648C10.8902 12.9226 10.091 13.6351 9.25181 14.2985C8.4126 13.6351 7.61339 12.9226 6.85838 12.1648C6.10052 11.4098 5.38803 10.6106 4.72463 9.77135C6.0556 8.09412 7.57459 6.57513 9.25181 5.24416C10.091 5.90756 10.8902 6.62005 11.6453 7.37791C12.4031 8.13292 13.1156 8.93213 13.779 9.77135ZM2.07525 2.59478C2.2815 2.3876 2.62181 2.28072 3.07088 2.28072C4.179 2.28072 5.94806 2.9276 8.00681 4.33385C7.2366 4.95627 6.49935 5.61842 5.79806 6.3176C5.09841 7.01875 4.43624 7.75634 3.81431 8.52728C1.84556 5.63228 1.359 3.31103 2.07525 2.59478ZM2.07525 16.9479C1.359 16.2317 1.84556 13.9104 3.81431 11.0154C4.43715 11.7864 5.10026 12.524 5.80088 13.2251C6.50158 13.9242 7.2382 14.5863 8.00775 15.2088C5.11275 17.1776 2.7915 17.6651 2.07525 16.9479ZM16.4284 16.9479C15.7121 17.6651 13.3909 17.1804 10.4959 15.2117C11.2665 14.5883 12.004 13.9252 12.7056 13.2251C13.4052 12.5239 14.0674 11.7864 14.6893 11.0154C16.6581 13.9104 17.1446 16.2317 16.4284 16.9479ZM10.3768 9.77135C10.3768 9.99385 10.3108 10.2114 10.1872 10.3964C10.0636 10.5814 9.8879 10.7256 9.68233 10.8107C9.47677 10.8959 9.25057 10.9181 9.03234 10.8747C8.81411 10.8313 8.61365 10.7242 8.45632 10.5668C8.29899 10.4095 8.19184 10.2091 8.14843 9.99082C8.10502 9.77259 8.1273 9.54639 8.21245 9.34083C8.2976 9.13526 8.44179 8.95956 8.6268 8.83594C8.8118 8.71233 9.02931 8.64635 9.25181 8.64635C9.55018 8.64635 9.83633 8.76487 10.0473 8.97585C10.2583 9.18683 10.3768 9.47298 10.3768 9.77135Z" fill="#9747FF"/>
</svg>
