<svg width="23" height="17" viewBox="0 0 23 17" fill="none" xmlns="http://www.w3.org/2000/svg">
<path d="M16.0098 11.9525L14.2904 10.2322V15.9219C14.2904 16.1208 14.2114 16.3116 14.0708 16.4522C13.9301 16.5929 13.7394 16.6719 13.5404 16.6719C13.3415 16.6719 13.1508 16.5929 13.0101 16.4522C12.8695 16.3116 12.7904 16.1208 12.7904 15.9219V10.2322L11.0711 11.9525C11.0014 12.0222 10.9187 12.0775 10.8276 12.1152C10.7366 12.1529 10.639 12.1723 10.5404 12.1723C10.4419 12.1723 10.3443 12.1529 10.2533 12.1152C10.1622 12.0775 10.0795 12.0222 10.0098 11.9525C9.94013 11.8828 9.88486 11.8001 9.84715 11.709C9.80943 11.618 9.79002 11.5204 9.79002 11.4219C9.79002 11.3233 9.80943 11.2257 9.84715 11.1347C9.88486 11.0437 9.94013 10.9609 10.0098 10.8912L13.0098 7.89125C13.0795 7.82152 13.1622 7.7662 13.2532 7.72846C13.3443 7.69071 13.4419 7.67128 13.5404 7.67128C13.639 7.67128 13.7366 7.69071 13.8276 7.72846C13.9187 7.7662 14.0014 7.82152 14.0711 7.89125L17.0711 10.8912C17.1407 10.9609 17.196 11.0437 17.2337 11.1347C17.2714 11.2257 17.2909 11.3233 17.2909 11.4219C17.2909 11.5204 17.2714 11.618 17.2337 11.709C17.196 11.8001 17.1407 11.8828 17.0711 11.9525C17.0014 12.0222 16.9187 12.0775 16.8276 12.1152C16.7366 12.1529 16.639 12.1723 16.5404 12.1723C16.4419 12.1723 16.3443 12.1529 16.2533 12.1152C16.1622 12.0775 16.0795 12.0222 16.0098 11.9525ZM14.2904 0.171875C12.7582 0.173031 11.2564 0.600516 9.95322 1.4065C8.65003 2.21249 7.5968 3.36518 6.91138 4.73563C6.09531 4.61571 5.26327 4.66534 4.46724 4.88142C3.67122 5.0975 2.92829 5.47539 2.28486 5.99149C1.64144 6.50759 1.11134 7.15081 0.727667 7.88098C0.343996 8.61116 0.114997 9.41259 0.0549715 10.2352C-0.00505367 11.0579 0.105185 11.8841 0.378801 12.6622C0.652418 13.4403 1.08354 14.1537 1.64523 14.7577C2.20692 15.3618 2.88713 15.8435 3.64336 16.1728C4.39959 16.5022 5.21561 16.6721 6.04044 16.6719H9.79044C9.98935 16.6719 10.1801 16.5929 10.3208 16.4522C10.4614 16.3116 10.5404 16.1208 10.5404 15.9219C10.5404 15.723 10.4614 15.5322 10.3208 15.3915C10.1801 15.2509 9.98935 15.1719 9.79044 15.1719H6.04044C4.84697 15.1719 3.70237 14.6978 2.85846 13.8539C2.01455 13.0099 1.54044 11.8653 1.54044 10.6719C1.54044 9.4784 2.01455 8.33381 2.85846 7.48989C3.70237 6.64598 4.84697 6.17188 6.04044 6.17188C6.14357 6.17188 6.24669 6.17188 6.34888 6.18313C6.14386 6.91169 6.04007 7.66501 6.04044 8.42188C6.04044 8.62079 6.11946 8.81155 6.26011 8.95221C6.40076 9.09286 6.59153 9.17188 6.79044 9.17188C6.98935 9.17188 7.18012 9.09286 7.32077 8.95221C7.46142 8.81155 7.54044 8.62079 7.54044 8.42188C7.54063 7.20496 7.86978 6.01073 8.49308 4.96556C9.11638 3.9204 10.0106 3.06317 11.0812 2.4846C12.1518 1.90603 13.3589 1.62764 14.5747 1.67889C15.7905 1.73013 16.9699 2.10911 17.988 2.77572C19.0061 3.44233 19.825 4.37177 20.3582 5.46568C20.8913 6.55959 21.1188 7.77729 21.0166 8.9899C20.9144 10.2025 20.4862 11.3649 19.7775 12.3542C19.0687 13.3434 18.1058 14.1226 16.9904 14.6094C16.8321 14.678 16.7022 14.7992 16.6228 14.9525C16.5434 15.1057 16.5193 15.2817 16.5545 15.4507C16.5898 15.6196 16.6822 15.7713 16.8163 15.88C16.9504 15.9887 17.1178 16.0479 17.2904 16.0475C17.3938 16.0474 17.496 16.0257 17.5904 15.9838C19.3279 15.2258 20.7514 13.8927 21.6215 12.2086C22.4916 10.5244 22.7551 8.59202 22.3679 6.73638C21.9806 4.88075 20.9661 3.21509 19.495 2.01956C18.024 0.82402 16.1861 0.171546 14.2904 0.171875Z" fill="#9747FF"/>
</svg>
