<svg width="19" height="19" viewBox="0 0 19 19" fill="none" xmlns="http://www.w3.org/2000/svg">
<path d="M18.252 3.77193C18.2517 3.21089 18.0941 2.66117 17.7971 2.18521C17.5 1.70925 17.0755 1.32611 16.5717 1.0793C16.0678 0.832502 15.5049 0.731928 14.9468 0.789004C14.3886 0.84608 13.8577 1.05852 13.4142 1.40219C12.9708 1.74587 12.6326 2.20701 12.4381 2.73324C12.2435 3.25947 12.2005 3.82971 12.3138 4.37919C12.427 4.92867 12.6921 5.43538 13.0789 5.84176C13.4657 6.24814 13.9587 6.53792 14.502 6.67818V8.27193C14.502 8.47084 14.4229 8.6616 14.2823 8.80226C14.1416 8.94291 13.9509 9.02193 13.752 9.02193H4.75196C4.55305 9.02193 4.36228 8.94291 4.22163 8.80226C4.08098 8.6616 4.00196 8.47084 4.00196 8.27193V6.67818C4.70895 6.49563 5.3251 6.0615 5.73491 5.45717C6.14472 4.85284 6.32006 4.11979 6.22805 3.39543C6.13604 2.67107 5.78301 2.00513 5.23513 1.52244C4.68726 1.03974 3.98214 0.773439 3.25196 0.773439C2.52178 0.773439 1.81667 1.03974 1.26879 1.52244C0.720906 2.00513 0.367877 2.67107 0.275871 3.39543C0.183865 4.11979 0.3592 4.85284 0.769009 5.45717C1.17882 6.0615 1.79497 6.49563 2.50196 6.67818V8.27193C2.50196 8.86866 2.73901 9.44096 3.16097 9.86292C3.58293 10.2849 4.15522 10.5219 4.75196 10.5219H8.50196V12.8657C7.79497 13.0482 7.17882 13.4823 6.76901 14.0867C6.3592 14.691 6.18387 15.4241 6.27587 16.1484C6.36788 16.8728 6.72091 17.5387 7.26879 18.0214C7.81667 18.5041 8.52178 18.7704 9.25196 18.7704C9.98214 18.7704 10.6873 18.5041 11.2351 18.0214C11.783 17.5387 12.136 16.8728 12.228 16.1484C12.3201 15.4241 12.1447 14.691 11.7349 14.0867C11.3251 13.4823 10.709 13.0482 10.002 12.8657V10.5219H13.752C14.3487 10.5219 14.921 10.2849 15.343 9.86292C15.7649 9.44096 16.002 8.86866 16.002 8.27193V6.67818C16.6457 6.51097 17.2158 6.13496 17.623 5.60905C18.0301 5.08314 18.2513 4.43703 18.252 3.77193ZM1.75196 3.77193C1.75196 3.47525 1.83993 3.18525 2.00476 2.93857C2.16958 2.6919 2.40385 2.49964 2.67794 2.38611C2.95202 2.27258 3.25362 2.24287 3.5446 2.30075C3.83557 2.35863 4.10284 2.50149 4.31262 2.71127C4.5224 2.92105 4.66526 3.18832 4.72314 3.47929C4.78102 3.77026 4.75131 4.07186 4.63778 4.34595C4.52425 4.62004 4.33199 4.85431 4.08532 5.01913C3.83864 5.18395 3.54863 5.27193 3.25196 5.27193C2.85414 5.27193 2.4726 5.11389 2.1913 4.83259C1.91 4.55128 1.75196 4.16975 1.75196 3.77193ZM10.752 15.7719C10.752 16.0686 10.664 16.3586 10.4992 16.6053C10.3343 16.852 10.1001 17.0442 9.82599 17.1577C9.5519 17.2713 9.2503 17.301 8.95932 17.2431C8.66835 17.1852 8.40108 17.0424 8.1913 16.8326C7.98152 16.6228 7.83866 16.3555 7.78078 16.0646C7.7229 15.7736 7.75261 15.472 7.86614 15.1979C7.97967 14.9238 8.17193 14.6895 8.41861 14.5247C8.66528 14.3599 8.95529 14.2719 9.25196 14.2719C9.64979 14.2719 10.0313 14.43 10.3126 14.7113C10.5939 14.9926 10.752 15.3741 10.752 15.7719ZM15.252 5.27193C14.9553 5.27193 14.6653 5.18395 14.4186 5.01913C14.1719 4.85431 13.9797 4.62004 13.8661 4.34595C13.7526 4.07186 13.7229 3.77026 13.7808 3.47929C13.8387 3.18832 13.9815 2.92105 14.1913 2.71127C14.4011 2.50149 14.6684 2.35863 14.9593 2.30075C15.2503 2.24287 15.5519 2.27258 15.826 2.38611C16.1001 2.49964 16.3343 2.6919 16.4992 2.93857C16.664 3.18525 16.752 3.47525 16.752 3.77193C16.752 4.16975 16.5939 4.55128 16.3126 4.83259C16.0313 5.11389 15.6498 5.27193 15.252 5.27193Z" fill="#9747FF"/>
</svg>
