<svg width="18" height="19" viewBox="0 0 18 19" fill="none" xmlns="http://www.w3.org/2000/svg">
<path d="M7 0.5H1C0.734784 0.5 0.48043 0.605357 0.292893 0.792893C0.105357 0.98043 0 1.23478 0 1.5V7.5C0 7.76522 0.105357 8.01957 0.292893 8.20711C0.48043 8.39464 0.734784 8.5 1 8.5H7C7.26522 8.5 7.51957 8.39464 7.70711 8.20711C7.89464 8.01957 8 7.76522 8 7.5V1.5C8 1.23478 7.89464 0.98043 7.70711 0.792893C7.51957 0.605357 7.26522 0.5 7 0.5ZM6 6.5H2V2.5H6V6.5ZM11 8.5H17C17.2652 8.5 17.5196 8.39464 17.7071 8.20711C17.8946 8.01957 18 7.76522 18 7.5V1.5C18 1.23478 17.8946 0.98043 17.7071 0.792893C17.5196 0.605357 17.2652 0.5 17 0.5H11C10.7348 0.5 10.4804 0.605357 10.2929 0.792893C10.1054 0.98043 10 1.23478 10 1.5V7.5C10 7.76522 10.1054 8.01957 10.2929 8.20711C10.4804 8.39464 10.7348 8.5 11 8.5ZM12 2.5H16V6.5H12V2.5ZM0 17.5C0 17.7652 0.105357 18.0196 0.292893 18.2071C0.48043 18.3946 0.734784 18.5 1 18.5H7C7.26522 18.5 7.51957 18.3946 7.70711 18.2071C7.89464 18.0196 8 17.7652 8 17.5V11.5C8 11.2348 7.89464 10.9804 7.70711 10.7929C7.51957 10.6054 7.26522 10.5 7 10.5H1C0.734784 10.5 0.48043 10.6054 0.292893 10.7929C0.105357 10.9804 0 11.2348 0 11.5V17.5ZM2 12.5H6V16.5H2V12.5ZM10 17.5C10 17.7652 10.1054 18.0196 10.2929 18.2071C10.4804 18.3946 10.7348 18.5 11 18.5H17C17.2652 18.5 17.5196 18.3946 17.7071 18.2071C17.8946 18.0196 18 17.7652 18 17.5V11.5C18 11.2348 17.8946 10.9804 17.7071 10.7929C17.5196 10.6054 17.2652 10.5 17 10.5H11C10.7348 10.5 10.4804 10.6054 10.2929 10.7929C10.1054 10.9804 10 11.2348 10 11.5V17.5ZM12 12.5H16V16.5H12V12.5Z" fill="#9945FF"/>
</svg>
